<svg xmlns="http://www.w3.org/2000/svg" id="Layer_1" data-name="Layer 1" viewBox="0 0 43.19 39.91"><defs><style>.cls-1{fill:#fff;}.cls-2{fill:none;}</style></defs><title>Artboard 13</title><path class="cls-1" d="M21.6,7.25A10.21,10.21,0,1,0,31.81,17.46,10.21,10.21,0,0,0,21.6,7.25Zm0,18.23h0c-5.11-9.31,0-16,0-16v0S26.71,16.17,21.6,25.48Z"/><circle class="cls-2" cx="21.6" cy="17.46" r="11.75"/><path class="cls-1" d="M34.45.1C34.61-.05,22.39,0,21.6,0S8.58-.05,8.74.1L0,24.21,21.55,39.88l0,0,0,0L43.19,24.21ZM21.63,37.8l-.33-.18-19-13.8L9.89,2.92h0L10,2.59c.17-.42.18-.45,11.59-.38s11.41,0,11.58.38l.13.31h0l7.58,20.9Z"/><circle class="cls-2" cx="21.6" cy="17.52" r="11.75"/><path class="cls-1" d="M29,31.24l10.63-7.73-2.22-6.12L35.67,17l.52-3.14-1.81-5L32,8.65l2.16-.43-.19-.53-4.26-.12,3.93-.79L32.35,3.3c-1.4-.06-7.66,0-10.75,0l-4.31,0-.74,1.38-.88-1.38c-2.16,0-4.12,0-4.82,0L8.46,9.88l1.81,1.35L8,11,5.16,19l3.44,1.42-3.77-.53L3.52,23.51l7.28,5.29,2.05.1L13,30.39l8.62,6.27L27,32.75l-.46-3.31L28,32l.32-.24-.2-1.61Zm-7.45-2A11.75,11.75,0,1,1,33.34,17.52,11.75,11.75,0,0,1,21.6,29.27Z"/></svg>